<?xml version="1.0" encoding="utf-8"?>
<!-- Generator: Adobe Illustrator 26.0.1, SVG Export Plug-In . SVG Version: 6.00 Build 0)  -->
<svg version="1.1" id="Layer_1" xmlns="http://www.w3.org/2000/svg" xmlns:xlink="http://www.w3.org/1999/xlink" x="0px" y="0px"
	 viewBox="0 0 114.3 25" enable-background="new 0 0 114.3 25" xml:space="preserve">
<path fill="#FFFFFF" d="M10.2,21c2,0.9,4.1,1.6,6.2,2.2c0.4,0.1,0.8,0.2,1.1,0.3c0.4,0.1,0.9,0.3,0.8,0.9c-0.1,0.6-0.6,0.5-1.1,0.5
	c-2.5-0.1-5-0.5-7.5-1c-2.7-0.6-5.4-1.5-7.9-2.6c-0.6-0.3-1.2-0.6-1.5-1.1c-0.5-0.9-0.5-1.6,0.4-2.3c2.8-2,5.6-4.1,8.3-6.3
	c0.8-0.6,1.6-1.1,2.7-1.3c1.5-0.2,2.3,0.6,1.9,2.1c-0.3,1.4-1.3,2.3-2.3,3.2c-0.2,0.2-0.3,0.3-0.7,0.6c2.4,0,4.6-0.4,6.8-0.7
	c8.3-1.4,16.1-4.3,23.1-9C41,6.2,41.5,5.9,42,6.2c0.8,0.4,0.8,1.2,0,1.9c-2.4,2.1-5,4-7.7,5.6c-7.2,4.3-15,6.6-23.4,7.1
	c-0.2,0-0.4,0-0.6,0.1C10.3,20.9,10.3,20.9,10.2,21z M21.8,20.2c3.7-0.7,7.2-2.2,10.4-4.2C28.6,17.2,25.1,18.5,21.8,20.2z M2.9,15.6
	c1.1-0.8,2.3-1.5,3-2.8c-1.1,0.8-2.2,1.7-3.3,2.5C2.8,15.5,2.9,15.5,2.9,15.6z M50.7,8.1c0.1,0.1,0.2,0.2,0.3,0.3
	c0.4,0.1,0.9,0.3,1.4,0.4s1,0.2,1.5,0.2c0.1,0,0.2-0.1,0.3-0.1s0.2,0,0.3,0s0.2,0,0.3,0s0.2,0,0.3,0c0.2-0.1,0.3-0.2,0.5-0.4
	s0.3-0.2,0.4-0.4c0-0.2,0-0.3,0-0.4s-0.1-0.2-0.2-0.3s-0.2-0.2-0.2-0.3S55.4,7,55.3,6.9c-0.7,0-1.4,0-2.1-0.1s-1.4-0.2-2-0.3
	c-0.1-0.1-0.1-0.2-0.2-0.3S51,5.9,51,5.8c0.1-0.1,0.1-0.1,0.2-0.2s0.1-0.2,0.1-0.3c0.1-0.1,0.3-0.3,0.4-0.4s0.3-0.3,0.4-0.4
	s0.3-0.3,0.5-0.4s0.4-0.2,0.6-0.3c0.1-0.1,0.3-0.3,0.4-0.4s0.3-0.2,0.5-0.3s0.4-0.1,0.6-0.2s0.4-0.1,0.7-0.2
	c0.2-0.1,0.4-0.2,0.6-0.3s0.3-0.4,0.3-0.6s0.1-0.4,0-0.6S56.1,1,55.8,0.9c0-0.1,0-0.1,0-0.1s0-0.1,0-0.1c-0.1,0-0.2,0-0.2-0.1
	s-0.1-0.1-0.2,0c0,0,0,0,0.1-0.1s0-0.1-0.1-0.1c0,0.1,0,0.1-0.1,0.1s0,0-0.1-0.1s-0.1-0.1-0.1-0.1s-0.1,0-0.1,0
	c-0.1,0-0.1,0-0.2,0.1s-0.2,0-0.2-0.1c-0.1,0.1-0.1,0.2-0.2,0.2S54.1,0.6,54,0.6s-0.2,0.1-0.3,0.2S53.5,0.9,53.4,1
	c-0.2,0-0.4,0.1-0.5,0.2s-0.3,0.2-0.4,0.3s-0.3,0.2-0.4,0.3S51.7,1.9,51.5,2c0,0.1-0.1,0.1-0.2,0.2s-0.1,0.1-0.2,0.2
	S51,2.4,50.9,2.5s-0.1,0.1-0.1,0.2c0,0-0.1,0-0.1,0c-0.1,0.1-0.3,0.3-0.4,0.4S50,3.4,49.9,3.5S49.6,3.9,49.5,4s-0.2,0.4-0.3,0.6
	c0,0.3,0,0.6,0,0.9s0.1,0.6,0.2,0.9s0.2,0.6,0.3,0.8s0.3,0.5,0.6,0.6C50.5,7.9,50.7,8,50.7,8.1z M60,8.7c0.1,0,0.2,0,0.3,0
	s0.2,0,0.3,0c0.1,0,0.2,0,0.3,0s0.2,0,0.3,0c0.2,0,0.4,0,0.7,0.1c0.2,0,0.3-0.1,0.4-0.1c0,0,0,0,0.1,0s0.1,0,0.1,0
	c0,0,0.1-0.1,0.1-0.1s0.1-0.1,0.2-0.1l0-0.1c0,0,0-0.1,0-0.1c0,0,0-0.1-0.1-0.1l-0.1-0.5c-0.1-0.1-0.2-0.1-0.2-0.1s-0.2-0.1-0.3-0.1
	c-0.1,0-0.2-0.1-0.3-0.1S61.7,7.1,61.6,7c0,0-0.1,0-0.1,0c0,0-0.1,0-0.1,0s-0.1,0-0.1-0.1c-0.1,0-0.2,0-0.3,0s-0.2,0-0.3,0
	c-0.3,0-0.5,0-0.8,0S59.2,7.1,59,7.2c-0.1,0-0.2,0-0.2,0c0,0-0.1,0-0.1,0s-0.1,0-0.1,0c0-0.3,0.1-0.5,0.1-0.8s0.2-0.5,0.3-0.7
	C59,5.6,59,5.5,59.1,5.4s0.1-0.3,0.1-0.5c0,0,0.1-0.1,0.1-0.1s0-0.1,0.1-0.1s0-0.1,0-0.1s0-0.1,0.1-0.1c0-0.2,0.1-0.3,0.1-0.4
	s0.1-0.2,0.2-0.4c0-0.1,0.1-0.2,0.1-0.3s0.1-0.2,0.1-0.4c0,0,0.1,0,0.1-0.1c0-0.2,0-0.3-0.1-0.4s-0.1-0.2-0.2-0.3c0,0,0,0,0-0.1
	S59.7,2,59.6,2c-0.1,0-0.3,0-0.5-0.1s-0.4-0.1-0.5-0.2c0,0-0.1,0-0.1,0c0,0-0.1,0-0.1,0.1c-0.1,0.4-0.2,0.8-0.3,1.1s-0.2,0.7-0.4,1
	c-0.1,0.2-0.2,0.4-0.2,0.6S57.3,5,57.2,5.3c0,0.1-0.1,0.1-0.1,0.2s0,0.2,0,0.2C57,5.9,57,6,57,6.1s-0.1,0.2-0.1,0.4c0,0,0,0.1,0,0.1
	s0,0.1,0,0.1c0,0.1-0.1,0.3-0.1,0.4s0,0.3,0,0.5s0.1,0.3,0.1,0.4s0.1,0.3,0.2,0.4c0,0.1,0,0.1,0,0.1s0,0.1,0.1,0.1
	c0,0,0.1,0.1,0.1,0.2c0.2,0.2,0.5,0.3,0.9,0.3c0.3,0,0.5,0,0.8-0.1s0.5-0.1,0.7-0.2L60,8.7z M65.4,6.9c0-0.4,0.1-0.7,0.1-1.1
	s0.2-0.7,0.3-1.1s0.3-0.7,0.4-1.1c-0.1,0-0.1-0.1-0.1-0.1s0-0.2-0.1-0.2s0-0.2,0-0.3s0-0.2,0-0.2c-0.1,0-0.2-0.1-0.2-0.2
	s-0.1-0.2-0.1-0.3s0-0.2-0.1-0.3s-0.1-0.2-0.1-0.3c-0.1,0-0.2,0-0.3,0.1s-0.2,0.1-0.2,0.1S64.9,2,64.9,2.1s-0.1,0.1-0.2,0.2
	c0,0.1,0,0.3-0.1,0.4s-0.1,0.2-0.1,0.3c0,0.1-0.1,0.1,0,0.2s0,0.1,0,0.2c0,0,0,0.1-0.1,0.1s-0.1,0-0.1,0.1c0,0.1,0,0.1,0,0.2
	s0,0.1,0,0.2c-0.1,0.3-0.1,0.6-0.3,0.9c-0.1,0.3-0.2,0.6-0.2,0.9c0,0.1,0,0.2,0,0.4s0,0.3,0,0.4s0,0.2,0,0.4s0,0.2-0.1,0.3
	c0,0.1,0.1,0.3,0.1,0.5s0.1,0.3,0.1,0.5s0.1,0.3,0.2,0.5s0.1,0.3,0.2,0.4c0.1,0,0.3,0,0.4,0s0.3,0,0.4-0.1s0.2-0.2,0.3-0.3
	s0.1-0.3,0-0.6C65.4,7.7,65.4,7.3,65.4,6.9z M72.1,8.6c0.1-0.1,0.3-0.2,0.4-0.3c0-0.1,0-0.2,0-0.3s-0.1-0.2-0.2-0.2
	s-0.1-0.1-0.2-0.2S72,7.4,71.9,7.3c-0.6,0-1.2,0-1.8-0.1S69,7.1,68.5,6.9c0-0.1-0.1-0.2-0.1-0.3s-0.1-0.2-0.1-0.3
	c0-0.1,0.1-0.1,0.1-0.2s0.1-0.1,0.1-0.3c0.1-0.1,0.2-0.2,0.4-0.4s0.2-0.2,0.4-0.4s0.3-0.2,0.4-0.3s0.3-0.2,0.5-0.2
	c0.2-0.2,0.5-0.4,0.8-0.5s0.7-0.2,1.1-0.3c0.2,0,0.3-0.1,0.5-0.3s0.2-0.3,0.3-0.5s0.1-0.3,0-0.5s-0.2-0.3-0.4-0.3c0,0,0-0.1,0-0.1
	s0,0,0-0.1c-0.1,0-0.2,0-0.2-0.1S72,2,71.9,2c0,0,0,0,0-0.1s0-0.1,0-0.1c0,0,0,0.1-0.1,0.1s0,0-0.1,0s0,0-0.1-0.1s-0.1,0-0.1,0
	c-0.1,0-0.1,0-0.2,0.1s-0.1,0-0.2-0.1c0,0.1-0.1,0.1-0.2,0.2S70.9,2,70.8,2.1s-0.2,0.1-0.3,0.1s-0.2,0.1-0.2,0.2
	c-0.2,0-0.3,0.1-0.4,0.2s-0.2,0.1-0.4,0.2S69.3,2.9,69.2,3s-0.3,0.1-0.4,0.2c0,0.1-0.1,0.1-0.2,0.2s-0.1,0.1-0.2,0.1
	s-0.1,0.1-0.2,0.1S68.1,3.7,68,3.8c-0.2,0.2-0.4,0.5-0.7,0.8S67,5.1,66.9,5.4c0,0.2,0,0.5,0,0.7S67,6.6,67,6.9s0.2,0.5,0.3,0.7
	s0.3,0.4,0.5,0.5c0.1,0,0.2,0.1,0.3,0.2s0.2,0.2,0.2,0.2c0.4,0.1,0.8,0.2,1.2,0.3S70.3,9,70.8,9c0.2-0.1,0.3-0.1,0.5-0.1
	s0.3,0,0.5,0C71.9,8.8,72,8.7,72.1,8.6z M80.7,8C80.9,7.8,81,7.6,81,7.3c-0.1-0.1-0.3-0.2-0.4-0.3s-0.2-0.2-0.4-0.3c0,0-0.1,0-0.1,0
	s0,0,0,0.1c-0.3,0-0.6,0-0.9,0s-0.5,0-0.8-0.1s-0.4-0.2-0.6-0.3S77.5,6,77.4,5.8c0-0.1,0-0.1,0.1-0.1s0.1-0.1,0.1-0.1c0,0,0,0,0.1,0
	s0,0,0.1,0c0-0.1,0.1-0.1,0.1-0.2s0.1-0.1,0.2-0.1s0.1-0.1,0.2-0.1s0.1-0.1,0.1-0.1c0.2-0.1,0.4-0.3,0.5-0.4s0.3-0.2,0.5-0.3
	s0.3-0.2,0.5-0.3s0.3-0.2,0.5-0.4c0-0.1,0.1-0.2,0.1-0.2s0.1-0.1,0.1-0.2c0-0.1,0-0.2-0.1-0.3s-0.1-0.1-0.1-0.1s-0.1-0.1-0.2-0.1
	s-0.1-0.1-0.1-0.2c-0.1,0-0.2-0.1-0.3-0.1s-0.1-0.1-0.2-0.2c-0.1,0-0.2,0.1-0.3,0.1S79.1,2.3,79,2.3c0,0.1,0,0.1,0,0.1s0,0,0,0.1
	c0,0-0.1,0-0.1,0s-0.1,0-0.1,0c-0.3,0.2-0.5,0.3-0.8,0.5s-0.5,0.3-0.7,0.6c-0.1,0.1-0.2,0.2-0.3,0.2S76.8,3.9,76.7,4
	s-0.2,0.2-0.4,0.3S76.1,4.5,76,4.6c0-0.2,0.1-0.4,0.1-0.6s0.2-0.4,0.4-0.5c0,0,0-0.1,0-0.1s0,0,0,0s0,0,0-0.1s0,0,0-0.1
	c0.1-0.1,0.2-0.1,0.2-0.3s0-0.2,0-0.3s-0.1-0.2-0.1-0.3s-0.1-0.2-0.2-0.3l-0.2,0c0,0-0.1-0.1-0.1-0.1s0-0.1-0.1-0.1
	c-0.1,0-0.2,0-0.3-0.1s-0.2-0.1-0.3-0.1c-0.1,0.1-0.2,0.2-0.3,0.3S75,2.2,74.9,2.3s-0.1,0.2-0.2,0.4S74.6,2.9,74.5,3
	c-0.1,0.4-0.2,0.7-0.3,1S74,4.6,73.9,4.9s-0.2,0.6-0.3,0.9s-0.2,0.7-0.2,1.1c0,0-0.1,0-0.1,0s0,0,0,0.1c0,0,0,0,0,0.1s0,0,0.1,0.1
	c-0.1,0-0.1,0-0.1,0c0,0,0,0.1,0,0.1s0,0.1,0,0.1s0,0.1,0,0.1s0,0.1-0.1,0.1c0.1,0.1,0.2,0.1,0.2,0.2c0,0.1-0.1,0.1,0,0.2
	s0,0.1,0.1,0.2s0.1,0.1,0.1,0.2s0.1,0.2,0.1,0.3c0.1,0,0.1,0,0.2,0.1s0.1,0.1,0.1,0.1S73.9,9,74,9.1s0.1,0,0.2,0
	c0.2-0.1,0.4-0.2,0.6-0.4s0.3-0.4,0.4-0.6s0.3-0.4,0.4-0.6S76,7,76.2,6.9c0,0,0.1,0,0.1,0s0.1,0,0.1,0.1c0.1,0.1,0.2,0.2,0.3,0.4
	s0.3,0.2,0.4,0.3c0.1,0.1,0.2,0.2,0.4,0.3s0.2,0.2,0.3,0.2c0,0,0.1,0,0.2,0s0.1,0,0.2,0c0,0,0,0,0,0.1s0,0.1,0,0.1
	c0.3,0.1,0.6,0.2,0.8,0.2s0.6,0,1,0C80.4,8.4,80.6,8.2,80.7,8z M91.1,7.5c0-0.1,0-0.2,0-0.3c0.1-0.1,0.1-0.1,0.1-0.2
	s0.1-0.2,0.1-0.2s0.1-0.2,0.1-0.2s0.1-0.1,0.1-0.2c0-0.3,0.1-0.6,0.2-0.9s0.1-0.6,0.2-0.9c0-0.2,0-0.5,0-0.7s0-0.5-0.1-0.7
	c-0.1-0.1-0.2-0.2-0.3-0.3s-0.1-0.3-0.2-0.4S91.3,2.1,91.2,2S91.1,1.7,91,1.5c-0.1,0-0.3,0.1-0.4,0.2S90.4,2,90.4,2.1
	s-0.1,0.3-0.1,0.5s0,0.3,0,0.5c-0.1,0-0.1,0-0.1,0.1s-0.1,0.1-0.1,0.1c0,0.3,0,0.6,0,0.9S90,4.8,90,5.1c-0.2,0.1-0.3,0.2-0.5,0.2
	S89,5.5,88.8,5.5s-0.4,0.1-0.6,0.1s-0.4,0.1-0.6,0.1c0-0.1,0-0.1,0-0.1s-0.1,0-0.1-0.1c0-0.1,0.1-0.3,0.1-0.5s0.1-0.4,0.1-0.6
	s0.1-0.4,0.1-0.6s0-0.4,0-0.5c-0.1-0.1-0.2-0.3-0.3-0.4s-0.2-0.2-0.3-0.3s-0.2-0.2-0.2-0.4S87,2,86.9,1.9c-0.2,0.1-0.4,0.2-0.5,0.4
	s-0.2,0.5-0.2,0.8S86.1,3.7,86.1,4S86,4.6,86,4.9c-0.1,0-0.1,0-0.1,0c0,0.1,0,0.1,0,0.2s0,0.2,0,0.3s-0.1,0.2-0.1,0.3S85.7,6,85.6,6
	c0,0.2,0,0.3-0.1,0.5s-0.1,0.4-0.2,0.6c0,0,0,0.1,0,0.1s0,0.1,0,0.1s0,0.1,0,0.1s0,0.1,0,0.2c0,0,0,0-0.1,0s0,0,0,0.1s0,0.1,0,0.1
	s0,0.1,0,0.1c0.1,0.1,0.1,0.2,0.1,0.3s0.1,0.2,0.2,0.3c-0.1,0-0.1,0-0.1,0s0,0.1,0,0.1c0,0,0,0,0,0.1s0.1,0,0.1,0.1s0.1,0.1,0.1,0.1
	s0.1,0.1,0.1,0.1c0.1,0.1,0.3,0.1,0.4,0.1s0.2,0,0.3-0.1s0.2-0.1,0.3-0.1s0.2-0.1,0.3-0.1c0,0,0-0.1,0-0.1s0,0,0-0.1
	c0.1,0,0.1,0,0.2-0.1s0.1-0.2,0.2-0.3s0.1-0.2,0.1-0.3s0-0.1,0-0.2c0.1-0.1,0.2-0.1,0.4-0.2s0.3-0.2,0.5-0.3s0.4-0.2,0.6-0.2
	S89.2,7,89.4,7c0,0,0,0.1,0,0.1s0,0.2,0,0.3s0,0.2,0,0.3s0,0.1,0,0.1c0,0.2,0,0.4,0.1,0.5s0.2,0.3,0.3,0.5c0.1,0,0.1,0.1,0.2,0.1
	S90,8.9,90.1,9c0.1,0,0.3-0.1,0.4-0.2s0.3-0.1,0.4-0.2s0.2-0.2,0.3-0.3s0.1-0.3,0.1-0.5C91.1,7.6,91.1,7.5,91.1,7.5z M98.3,2.1
	C98.2,2,98.1,1.9,98,1.7c0,0.1,0,0.1-0.1,0.1s-0.1,0-0.1,0.1c-0.1,0-0.1,0-0.2-0.1c-0.3,0.1-0.6,0.1-0.9,0.1S96.3,2,96,2
	s-0.5,0.1-0.7,0.1s-0.5,0.1-0.8,0.2c-0.2,0-0.3,0.1-0.5,0.1s-0.3,0.1-0.4,0.1s-0.3,0.1-0.4,0.2S93,2.9,92.9,3.1
	c0,0.1,0.1,0.3,0.1,0.4s0,0.3,0.1,0.4s0.1,0.2,0.1,0.4s0.1,0.2,0.2,0.3c-0.1,0.1-0.1,0.3-0.2,0.4S93.1,5.2,93,5.3s-0.1,0.2-0.2,0.4
	S92.8,5.9,92.7,6c-0.1,0-0.1,0-0.1,0s0,0.1-0.1,0.1c0,0.1,0,0.2-0.1,0.3s-0.1,0.2-0.1,0.3c0,0.1,0,0.2,0,0.4s0,0.3,0.1,0.4
	s0,0.3,0.1,0.4s0,0.2,0,0.3c0.1,0,0.1,0.1,0.2,0.2s0.1,0.1,0.1,0.2c0.1,0.1,0.3,0.3,0.6,0.3S93.8,9,94.1,9s0.5,0,0.8,0
	s0.5-0.1,0.6-0.1c0.1,0,0.1,0,0.2,0s0.1,0,0.2,0c0.3-0.1,0.6-0.1,0.8-0.1s0.5-0.1,0.7-0.2s0.4-0.2,0.5-0.3s0.3-0.3,0.4-0.6
	c0,0-0.1,0-0.1,0s0-0.1,0-0.1s0-0.1,0-0.1s0-0.1-0.1-0.1c-0.1,0-0.1,0-0.2,0s-0.1-0.1-0.1-0.1S97.6,7.1,97.5,7s-0.1-0.1-0.2-0.1
	C97.2,7,97,7,96.8,7s-0.4,0.1-0.6,0.2c-0.2,0-0.5,0-0.6,0s-0.3,0-0.5,0.1s-0.3,0-0.5,0s-0.4,0-0.7,0c0.1-0.2,0.2-0.4,0.3-0.6
	s0.2-0.4,0.3-0.5c0.1,0,0.2,0,0.3,0s0.2,0,0.3,0.1c0.1,0,0.2-0.1,0.3,0s0.2,0,0.3,0c0,0,0.1,0,0.1,0s0,0,0.1,0c0.2,0,0.4,0,0.5-0.1
	s0.3-0.1,0.4-0.2s0.3-0.2,0.4-0.2s0.2-0.2,0.4-0.3c0-0.1,0-0.2,0-0.2s0-0.1-0.1-0.2c-0.1,0-0.1,0-0.2,0s-0.1-0.1-0.2-0.1
	S97.1,4.8,97,4.7s-0.1-0.1-0.2-0.1c0,0,0-0.1,0-0.1s0,0,0-0.1c-0.3,0-0.6,0-1,0.1s-0.6,0-0.9,0c0,0,0-0.1,0-0.2s0-0.1,0-0.2
	c0.1,0,0.1,0,0.2-0.1s0.1-0.1,0.2-0.1c0.2,0,0.3,0,0.4,0s0.2,0,0.3,0c0.3-0.2,0.5-0.3,0.8-0.3s0.5-0.1,0.8-0.1s0.5-0.1,0.7-0.2
	s0.4-0.3,0.6-0.5c0-0.1,0-0.1,0-0.1s0-0.1,0-0.1s0,0,0-0.1s0-0.1,0-0.1C98.6,2.2,98.5,2.2,98.3,2.1z M100.6,8
	c0.1,0.1,0.2,0.2,0.4,0.3s0.3,0.2,0.5,0.2s0.4,0.2,0.7,0.3c0.6,0.2,1,0.4,1.4,0.5s0.7,0.1,0.9,0c0.1,0,0.1,0,0.2-0.1
	s0.1-0.1,0.1-0.1s0.1-0.1,0.1-0.1s0.1-0.1,0.1-0.1c0,0-0.1,0-0.1,0s0,0-0.1,0c0-0.1,0.1-0.1,0.1-0.2s0-0.2,0-0.3s0-0.2-0.1-0.3
	s-0.1-0.2-0.2-0.3c-0.2,0-0.3,0-0.4,0s-0.2,0-0.3,0s-0.2,0-0.3-0.1s-0.3-0.1-0.5-0.1s-0.4-0.1-0.5-0.1s-0.2-0.1-0.3-0.1
	s-0.2-0.1-0.3-0.2s-0.3-0.2-0.4-0.3c0,0,0-0.1,0-0.1s0,0,0,0c0.3-0.1,0.5-0.2,0.9-0.3s0.6-0.2,0.9-0.3s0.5-0.3,0.7-0.5
	s0.3-0.5,0.3-0.8c0-0.1,0-0.1,0-0.1s0-0.1,0-0.1s0-0.1,0-0.1s0-0.1,0-0.1c-0.1-0.1-0.1-0.2-0.2-0.4s-0.1-0.3-0.1-0.4
	s-0.1-0.2-0.2-0.4s-0.1-0.2-0.2-0.3V2.7c-0.1,0-0.1-0.1-0.2-0.1s-0.1-0.1-0.2-0.1c-0.1-0.2-0.3-0.4-0.5-0.5s-0.4-0.2-0.5-0.4
	c-0.3,0-0.6,0.1-0.8,0.3s-0.4,0.4-0.5,0.6s-0.3,0.4-0.5,0.7s-0.3,0.4-0.5,0.6c0-0.1-0.1-0.1-0.2-0.1s-0.2,0-0.3,0
	c-0.1,0.2-0.1,0.4-0.2,0.6s-0.1,0.4-0.1,0.6S99,5.1,99,5.4S98.8,5.8,98.8,6c0,0,0,0.1,0,0.1s0,0.1,0,0.2s0,0.1,0,0.1s0,0-0.1,0
	c0,0.1,0.1,0.2,0,0.3S98.6,7,98.6,7.1s-0.1,0.2-0.1,0.4s0,0.3-0.1,0.4c0,0.1,0.1,0.1,0.1,0.2s0.1,0.1,0.1,0.1c0,0.1,0,0.1,0,0.1
	s0,0.1,0,0.1s0,0.1,0,0.1s0,0.1,0,0.2c0.1,0,0.1,0,0.2,0.1s0,0.1,0.1,0.2c0.1,0,0.1,0,0.2,0s0.1,0,0.1,0.1s0.1,0,0.1,0.1
	s0.1,0,0.2,0c0,0,0.1-0.1,0.1-0.1s0.1-0.1,0.2,0c0.1-0.2,0.2-0.3,0.3-0.5s0.1-0.4,0.2-0.7C100.4,7.8,100.5,7.9,100.6,8z M102.3,3.9
	c0.1,0.1,0.2,0.3,0.3,0.6c-0.3,0.1-0.5,0.2-0.8,0.3s-0.6,0.2-0.9,0.2c0-0.2,0.1-0.3,0.2-0.5s0.2-0.2,0.3-0.4s0.2-0.2,0.3-0.3
	s0.2-0.2,0.3-0.3C102,3.7,102.2,3.8,102.3,3.9z M111,2.1c-0.1-0.1-0.2-0.2-0.3-0.3c0,0.1,0,0.1-0.1,0.1s-0.1,0-0.1,0.1
	c-0.1,0-0.1,0-0.2-0.1c-0.3,0.1-0.6,0.1-0.9,0.1S108.9,2,108.7,2s-0.5,0.1-0.7,0.1s-0.5,0.1-0.8,0.2c-0.2,0-0.3,0.1-0.5,0.1
	s-0.3,0.1-0.4,0.1s-0.3,0.1-0.4,0.2s-0.2,0.2-0.3,0.3c0,0.1,0.1,0.3,0.1,0.4s0,0.3,0.1,0.4s0.1,0.2,0.1,0.4s0.1,0.2,0.2,0.3
	c-0.1,0.1-0.1,0.3-0.2,0.4s-0.1,0.2-0.2,0.4s-0.1,0.2-0.2,0.4s-0.1,0.3-0.2,0.4c-0.1,0-0.1,0-0.1,0s0,0.1-0.1,0.1
	c0,0.1,0,0.2-0.1,0.3S105,6.7,105,6.8c0,0.1,0,0.2,0,0.4s0,0.3,0.1,0.4s0,0.3,0.1,0.4s0,0.2,0,0.3c0.1,0,0.1,0.1,0.2,0.2
	s0.1,0.1,0.1,0.2c0.1,0.1,0.3,0.3,0.6,0.3s0.5,0.1,0.7,0.1s0.5,0,0.8,0s0.5-0.1,0.6-0.1c0.1,0,0.1,0,0.2,0s0.1,0,0.2,0
	c0.3-0.1,0.6-0.1,0.8-0.1s0.5-0.1,0.7-0.2s0.4-0.2,0.5-0.3s0.3-0.3,0.4-0.6c0,0-0.1,0-0.1,0s0-0.1,0-0.1s0-0.1,0-0.1s0-0.1-0.1-0.1
	c-0.1,0-0.1,0-0.2,0s-0.1-0.1-0.1-0.1s-0.1-0.1-0.1-0.2S110,6.9,110,6.9C109.8,7,109.6,7,109.4,7s-0.4,0.1-0.6,0.2
	c-0.2,0-0.5,0-0.6,0s-0.3,0-0.5,0.1s-0.3,0-0.5,0s-0.4,0-0.7,0c0.1-0.2,0.2-0.4,0.3-0.6s0.2-0.4,0.3-0.5c0.1,0,0.2,0,0.3,0
	s0.2,0,0.3,0.1c0.1,0,0.2-0.1,0.3,0s0.2,0,0.3,0c0,0,0.1,0,0.1,0s0,0,0.1,0c0.2,0,0.4,0,0.5-0.1s0.3-0.1,0.4-0.2s0.3-0.2,0.4-0.2
	s0.2-0.2,0.4-0.3c0-0.1,0-0.2,0-0.2s0-0.1-0.1-0.2c-0.1,0-0.1,0-0.2,0s-0.1-0.1-0.2-0.1s-0.1-0.1-0.2-0.2s-0.1-0.1-0.2-0.1
	c0,0,0-0.1,0-0.1s0,0,0-0.1c-0.3,0-0.6,0-1,0.1s-0.6,0-0.9,0c0,0,0-0.1,0-0.2s0-0.1,0-0.2c0.1,0,0.1,0,0.2-0.1s0.1-0.1,0.2-0.1
	c0.2,0,0.3,0,0.4,0s0.2,0,0.3,0c0.3-0.2,0.5-0.3,0.8-0.3s0.5-0.1,0.8-0.1s0.5-0.1,0.7-0.2s0.4-0.3,0.6-0.5c0-0.1,0-0.1,0-0.1
	s0-0.1,0-0.1s0,0,0-0.1s0-0.1,0-0.1C111.2,2.2,111.1,2.2,111,2.1z M113.1,7.4c-0.1-0.1-0.2-0.1-0.3-0.1s-0.2,0-0.4-0.1
	c-0.1,0-0.2,0-0.3-0.1s-0.2,0-0.2-0.1L111.8,7l-0.1,0.2c-0.1,0.1-0.1,0.2-0.2,0.3s-0.1,0.1-0.1,0.1s-0.1,0.1-0.1,0.1
	s-0.1,0.1-0.2,0.2l0.1,0.2l-0.1,0.1l0.2,0.2c0,0,0,0.1,0.1,0.2c0,0.1,0.1,0.2,0.2,0.4c0.1,0,0.1,0.1,0.2,0.1s0.1,0.1,0.2,0.2h0.1
	c0.1,0,0.2,0,0.3,0l0.2,0l0-0.1c0,0,0,0,0.1,0s0.1,0,0.1,0c0.1,0,0.1-0.1,0.2-0.1s0.1-0.1,0.1-0.1l0.1-0.1c0-0.1,0-0.1,0-0.1
	s0,0,0,0s0,0,0,0s0-0.1,0-0.1c0.1-0.1,0.1-0.3,0.2-0.4c0-0.1,0-0.1,0-0.2S113.2,7.6,113.1,7.4L113.1,7.4z M114.1,0.7
	c0-0.1-0.1-0.1-0.1-0.2s-0.1-0.1-0.1-0.2s-0.1-0.2-0.1-0.2c-0.1,0-0.2,0-0.3,0.1s-0.2,0.1-0.2,0.1s-0.1,0.1-0.2,0.2
	s-0.1,0.1-0.2,0.2c0,0.1,0,0.3-0.1,0.4s-0.1,0.2-0.1,0.3c0,0.1-0.1,0.2,0,0.2s0,0.1,0,0.2c0,0,0,0.1-0.1,0.1s-0.1,0-0.1,0.1
	c0,0.1,0,0.1,0,0.2s0,0.1,0,0.2c0,0.2-0.1,0.3-0.1,0.4s0,0.2,0,0.2s0,0.1-0.1,0.2s-0.1,0.1-0.2,0.2c0,0.1,0,0.3-0.1,0.5
	S112,4.3,112,4.6s-0.1,0.5-0.1,0.7s0,0.4,0,0.5c0.1,0.1,0.3,0.2,0.4,0.3s0.3,0.1,0.4,0.1s0.3,0,0.4-0.1s0.2-0.3,0.3-0.5
	c0.1-0.4,0.2-0.8,0.3-1s0.1-0.5,0.1-0.8s0.1-0.5,0.1-0.8s0.1-0.6,0.3-1c-0.1,0-0.1-0.1-0.1-0.2s0-0.2,0-0.3s0-0.2,0.1-0.3
	s0-0.2,0-0.3C114.2,0.8,114.2,0.7,114.1,0.7z"/>
<g>
</g>
<g>
</g>
<g>
</g>
<g>
</g>
<g>
</g>
<g>
</g>
</svg>
